<?xml version="1.0" standalone="no"?>
<!DOCTYPE svg PUBLIC "-//W3C//DTD SVG 20010904//EN"
 "http://www.w3.org/TR/2001/REC-SVG-20010904/DTD/svg10.dtd">
<svg version="1.0" xmlns="http://www.w3.org/2000/svg"
 width="300.000000pt" height="300.000000pt" viewBox="0 0 300.000000 300.000000"
 preserveAspectRatio="xMidYMid meet">
<metadata>
Created by potrace 1.10, written by Peter Selinger 2001-2011
</metadata>
<g transform="translate(0.000000,300.000000) scale(0.100000,-0.100000)"
fill="#000000" stroke="none">
<path d="M1358 2992 c-1 -5 -255 -153 -563 -331 -308 -177 -573 -335 -588
-349 -64 -60 -61 -17 -61 -807 0 -720 0 -720 22 -762 26 -49 54 -72 182 -145
52 -30 169 -98 260 -150 91 -53 181 -105 200 -116 166 -94 547 -316 555 -323
5 -5 64 -9 130 -9 l121 0 459 265 c252 146 503 291 559 322 131 73 170 104
195 156 20 41 21 60 21 356 l0 312 -25 24 c-14 15 -36 25 -52 25 -35 0 -219
-106 -244 -140 -16 -22 -19 -47 -20 -195 -1 -122 -5 -177 -15 -196 -17 -33
-23 -37 -529 -330 -379 -219 -424 -243 -465 -243 -41 0 -89 26 -509 269 -354
205 -468 276 -482 299 -18 30 -19 58 -17 588 l3 558 25 24 c22 21 805 477 917
535 54 27 73 26 131 -3 168 -87 900 -518 917 -540 18 -25 20 -47 25 -281 5
-244 6 -255 27 -276 11 -12 33 -21 47 -22 34 0 211 100 242 136 l25 30 -3 287
-3 287 -28 37 c-36 47 -5 28 -651 400 l-549 316 -128 0 c-70 0 -129 -4 -131
-8z m441 -144 c135 -78 345 -199 466 -269 121 -70 283 -163 360 -207 199 -114
186 -82 183 -426 l-3 -280 -109 -65 c-84 -49 -113 -62 -125 -54 -14 9 -17 46
-21 270 l-5 260 -27 34 c-19 24 -123 89 -375 233 -191 110 -405 232 -474 273
-105 61 -133 73 -170 73 -39 -1 -96 -30 -524 -278 -380 -220 -484 -284 -502
-311 l-23 -35 2 -570 c3 -566 3 -571 25 -601 14 -20 134 -95 375 -234 194
-112 410 -237 479 -278 163 -95 174 -95 313 -15 56 32 271 157 479 277 265
153 385 228 400 249 20 29 22 46 27 220 l5 189 112 65 c94 54 115 63 128 52
13 -11 15 -57 15 -320 0 -196 -4 -318 -11 -338 -11 -31 -92 -93 -179 -137 -19
-10 -267 -152 -551 -316 -496 -287 -519 -299 -568 -299 -48 0 -67 9 -249 114
-762 439 -971 560 -999 579 -67 45 -63 -1 -63 805 0 712 0 730 20 754 11 14
131 90 267 169 137 78 410 236 608 351 348 201 362 208 414 208 52 0 67 -7
300 -142z"/>
<path d="M1290 2422 c-609 -350 -578 -331 -607 -385 -18 -37 -9 -78 25 -114
38 -40 719 -430 764 -438 55 -10 90 5 336 147 123 70 228 128 233 128 5 0 9
-120 9 -290 l0 -290 -37 -24 c-21 -13 -136 -81 -256 -150 -180 -104 -225 -126
-258 -126 -33 0 -81 24 -277 136 -130 75 -247 147 -259 160 -22 24 -23 31 -23
234 l0 210 -27 29 c-16 16 -68 53 -118 80 -104 59 -143 65 -174 25 -20 -26
-21 -38 -21 -385 l0 -358 30 -35 c20 -22 166 -112 418 -258 l387 -223 65 0
c64 0 67 1 235 99 94 54 184 106 200 116 318 181 405 234 430 260 l30 31 0
499 0 499 -30 31 c-36 38 -233 150 -264 150 -28 0 -65 -19 -301 -155 -260
-150 -277 -158 -314 -152 -45 7 -217 109 -214 126 4 23 167 113 214 118 29 4
52 -1 82 -16 62 -32 94 -27 192 29 105 60 140 93 140 131 0 43 -33 71 -189
160 -131 75 -151 84 -205 87 -61 4 -61 3 -216 -86z m405 -38 c83 -48 156 -92
164 -99 26 -25 1 -51 -108 -113 l-110 -63 -58 31 c-78 43 -105 38 -252 -47
-119 -67 -146 -94 -120 -117 41 -37 238 -139 276 -144 50 -5 44 -8 369 179
l242 139 98 -56 c55 -31 114 -67 132 -81 l32 -24 0 -488 0 -488 -22 -20 c-13
-11 -194 -118 -403 -238 -448 -258 -430 -252 -551 -183 -309 174 -703 405
-722 421 l-22 21 2 359 c3 315 5 361 19 370 12 7 41 -5 125 -55 l109 -64 5
-231 c3 -135 9 -236 15 -241 6 -6 129 -79 275 -163 236 -137 270 -154 310
-154 40 0 74 17 296 147 138 81 263 152 277 159 l27 12 0 344 c0 188 -3 343
-6 343 -4 0 -128 -71 -278 -157 -240 -139 -276 -157 -316 -157 -40 0 -82 22
-410 211 -394 227 -402 233 -369 291 15 28 35 40 484 298 313 181 283 177 490
58z"/>
</g>
</svg>
